<svg width="86" height="52" viewBox="0 0 86 52" fill="none" xmlns="http://www.w3.org/2000/svg">
<g clip-path="url(#clip0_443_79)">
<path d="M24.0199 12.2093L28.2465 20.764C28.3135 20.9016 28.3443 21.0538 28.3361 21.2064C28.3278 21.3591 28.2808 21.5071 28.1994 21.6368C28.118 21.7665 28.0048 21.8735 27.8705 21.9479C27.7362 22.0223 27.5851 22.0616 27.4314 22.0622H18.8046C18.6366 22.0621 18.472 22.0153 18.3293 21.9271C18.1866 21.8389 18.0715 21.7129 17.997 21.5632L15.0497 15.6687C14.973 15.5215 14.8572 15.3981 14.7147 15.312C14.5723 15.2258 14.4088 15.1803 14.2421 15.1803C14.0754 15.1803 13.9119 15.2258 13.7695 15.312C13.6271 15.3981 13.5112 15.5215 13.4345 15.6687L10.3023 21.5969C10.2263 21.7427 10.1115 21.8649 9.97045 21.9503C9.82938 22.0356 9.66744 22.0808 9.5023 22.081H0.905697C0.747034 22.0826 0.590729 22.0427 0.452432 21.9654C0.314135 21.888 0.198699 21.7759 0.117682 21.6403C0.0366658 21.5047 -0.00708767 21.3502 -0.00919727 21.1925C-0.0113069 21.0347 0.0283014 20.8792 0.105662 20.7415L5.13984 11.2262C5.21278 11.0888 5.24871 10.9349 5.24413 10.7796C5.23954 10.6242 5.19461 10.4727 5.11369 10.3398C5.03278 10.2068 4.91863 10.097 4.78236 10.0208C4.64609 9.94475 4.49233 9.905 4.33604 9.90548H1.71705C1.59811 9.90548 1.48034 9.88218 1.37046 9.83693C1.26057 9.79168 1.16073 9.72535 1.07663 9.64173C0.992524 9.55811 0.925811 9.45884 0.880295 9.34958C0.83478 9.24033 0.811353 9.12323 0.811353 9.00498V2.25124C0.810854 2.13285 0.83394 2.01553 0.879278 1.90605C0.924617 1.79658 0.991312 1.69711 1.07551 1.61339C1.15971 1.52967 1.25976 1.46336 1.36987 1.41828C1.47998 1.3732 1.59798 1.35025 1.71705 1.35075H26.6238C26.7443 1.34825 26.8641 1.3697 26.9762 1.41383C27.0883 1.45797 27.1904 1.5239 27.2765 1.60777C27.3626 1.69164 27.431 1.79176 27.4777 1.90225C27.5244 2.01274 27.5484 2.13139 27.5484 2.25124V9.00498C27.5474 9.2435 27.4516 9.47197 27.282 9.64064C27.1124 9.8093 26.8826 9.90449 26.6427 9.90548H17.0272C16.8626 9.90606 16.7012 9.95105 16.5604 10.0356C16.4195 10.1202 16.3043 10.2412 16.2271 10.3857C16.1542 10.5232 16.1183 10.677 16.1228 10.8324C16.1274 10.9877 16.1724 11.1392 16.2533 11.2722C16.3342 11.4051 16.4483 11.515 16.5846 11.5911C16.7209 11.6672 16.8746 11.707 17.0309 11.7065H23.2048C23.3743 11.7064 23.5404 11.7535 23.6844 11.8423C23.8285 11.9312 23.9447 12.0583 24.0199 12.2093ZM40.2093 24.3134V47.445C40.2093 47.5753 40.1809 47.7041 40.126 47.8224C40.071 47.9407 39.9909 48.0458 39.8912 48.1304C39.7914 48.2149 39.6744 48.2769 39.5482 48.3121C39.422 48.3473 39.2896 48.3549 39.1602 48.3342L1.57742 42.4397C1.36582 42.4049 1.17362 42.2963 1.0353 42.1333C0.896979 41.9704 0.821595 41.7637 0.822674 41.5505V24.3134C0.822175 24.195 0.845261 24.0777 0.8906 23.9683C0.935939 23.8588 1.00263 23.7593 1.08683 23.6756C1.17104 23.5919 1.27108 23.5256 1.38119 23.4805C1.4913 23.4354 1.6093 23.4124 1.72837 23.4129H10.3325C10.5727 23.4129 10.8031 23.5078 10.973 23.6767C11.1428 23.8456 11.2382 24.0746 11.2382 24.3134V26.4184C11.2373 26.6426 11.3208 26.859 11.4724 27.025C11.624 27.191 11.8326 27.2945 12.0571 27.3151L28.8013 28.891C28.9297 28.906 29.0599 28.8935 29.1831 28.8543C29.3063 28.8151 29.4196 28.7501 29.5155 28.6637C29.6113 28.5774 29.6874 28.4716 29.7386 28.3535C29.7899 28.2354 29.8151 28.1078 29.8126 27.9792V24.3134C29.8121 24.195 29.8352 24.0777 29.8805 23.9683C29.9259 23.8588 29.9926 23.7593 30.0768 23.6756C30.161 23.5919 30.261 23.5256 30.3711 23.4805C30.4812 23.4354 30.5992 23.4124 30.7183 23.4129H39.3225C39.5594 23.4179 39.7849 23.5149 39.9507 23.6832C40.1165 23.8516 40.2094 24.0778 40.2093 24.3134ZM12.0118 35.8961L28.7673 38.1473C28.8983 38.1677 29.0323 38.1592 29.1597 38.1225C29.2871 38.0857 29.4048 38.0216 29.5045 37.9346C29.6042 37.8476 29.6835 37.7399 29.7367 37.6192C29.79 37.4984 29.8159 37.3674 29.8126 37.2356V36.0424C29.812 35.8193 29.7284 35.6043 29.5779 35.4388C29.4274 35.2732 29.2207 35.1688 28.9975 35.1457L12.2269 33.4197C12.1006 33.4066 11.973 33.42 11.8522 33.4591C11.7315 33.4982 11.6203 33.5621 11.526 33.6466C11.4317 33.7312 11.3564 33.8345 11.3048 33.9499C11.2533 34.0653 11.2267 34.1902 11.2269 34.3165V35.0069C11.2269 35.2246 11.3065 35.4348 11.4509 35.5984C11.5954 35.7621 11.7947 35.8679 12.0118 35.8961ZM43.8283 7.42911V14.6331C43.8283 14.8719 43.7329 15.101 43.5631 15.2698C43.3932 15.4387 43.1628 15.5336 42.9226 15.5336H41.1339C41.0148 15.5331 40.8968 15.556 40.7867 15.6011C40.6766 15.6462 40.5765 15.7125 40.4923 15.7962C40.4081 15.8799 40.3414 15.9794 40.2961 16.0889C40.2508 16.1984 40.2277 16.3157 40.2282 16.4341V21.1617C40.2272 21.4002 40.1314 21.6287 39.9618 21.7974C39.7922 21.966 39.5624 22.0612 39.3225 22.0622H30.6995C30.4625 22.0573 30.237 21.9603 30.0712 21.7919C29.9054 21.6236 29.8126 21.3973 29.8126 21.1617V0.900498C29.8116 0.664595 29.9041 0.437791 30.0701 0.269235C30.2361 0.100678 30.4622 0.003946 30.6995 0L39.3036 0C39.5438 0 39.7742 0.0948736 39.944 0.26375C40.1139 0.432626 40.2093 0.661671 40.2093 0.900498V5.62811C40.2093 5.86694 40.3047 6.09598 40.4746 6.26486C40.6444 6.43374 40.8748 6.52861 41.115 6.52861H42.9226C43.0417 6.52811 43.1597 6.55107 43.2698 6.59614C43.3799 6.64122 43.48 6.70753 43.5642 6.79125C43.6484 6.87497 43.7151 6.97444 43.7604 7.08392C43.8057 7.19339 43.8288 7.31071 43.8283 7.42911Z" fill="#2679F1"/>
<path d="M69.6974 13.2823V20.4862C69.6974 20.7251 69.602 20.9541 69.4321 21.123C69.2623 21.2919 69.0319 21.3867 68.7917 21.3867H54.3005C54.0603 21.3867 53.8299 21.4816 53.6601 21.6505C53.4902 21.8194 53.3948 22.0484 53.3948 22.2872V40.7662C53.3949 40.8936 53.4222 41.0195 53.4749 41.1356C53.5276 41.2517 53.6044 41.3553 53.7003 41.4397C53.7963 41.5241 53.9091 41.5873 54.0315 41.6252C54.1538 41.663 54.2828 41.6746 54.4099 41.6592L68.6823 39.967C68.8091 39.9522 68.9377 39.9642 69.0596 40.0023C69.1814 40.0404 69.2938 40.1037 69.3893 40.188C69.4848 40.2724 69.5613 40.3758 69.6138 40.4917C69.6662 40.6075 69.6934 40.733 69.6936 40.86V48.049C69.6934 48.2698 69.6119 48.4829 69.4645 48.6481C69.3171 48.8133 69.1141 48.9192 68.8936 48.9457L43.9868 51.8836C43.8596 51.8985 43.7307 51.8863 43.6086 51.848C43.4865 51.8097 43.3739 51.7461 43.2784 51.6613C43.1828 51.5766 43.1064 51.4726 43.0542 51.3564C43.0019 51.2401 42.9751 51.1142 42.9755 50.9869V13.2823C42.9755 13.0434 43.0709 12.8144 43.2407 12.6455C43.4106 12.4766 43.641 12.3818 43.8812 12.3818H68.7879C68.9073 12.3808 69.0257 12.4034 69.1363 12.4482C69.2468 12.4931 69.3473 12.5593 69.4319 12.6431C69.5165 12.7268 69.5835 12.8265 69.6291 12.9362C69.6747 13.0459 69.6979 13.1635 69.6974 13.2823ZM86 26.5646V34.6691C85.999 34.9076 85.9033 35.1361 85.7336 35.3047C85.564 35.4734 85.3342 35.5686 85.0943 35.5696H83.2829C83.1638 35.5691 83.0458 35.592 82.9357 35.6371C82.8256 35.6822 82.7256 35.7485 82.6414 35.8322C82.5572 35.9159 82.4905 36.0154 82.4451 36.1249C82.3998 36.2344 82.3767 36.3517 82.3772 36.4701V51.1032C82.3772 51.2214 82.3538 51.3385 82.3083 51.4478C82.2627 51.557 82.196 51.6563 82.1119 51.7399C82.0278 51.8235 81.928 51.8899 81.8181 51.9351C81.7082 51.9804 81.5904 52.0037 81.4715 52.0037H72.8673C72.7483 52.0042 72.6303 51.9812 72.5202 51.9361C72.41 51.8911 72.31 51.8247 72.2258 51.741C72.1416 51.6573 72.0749 51.5578 72.0296 51.4484C71.9842 51.3389 71.9611 51.2216 71.9616 51.1032V11.9315C71.9611 11.8131 71.9842 11.6958 72.0296 11.5863C72.0749 11.4768 72.1416 11.3774 72.2258 11.2937C72.31 11.2099 72.41 11.1436 72.5202 11.0985C72.6303 11.0535 72.7483 11.0305 72.8673 11.031H81.4715C81.7117 11.031 81.9421 11.1259 82.1119 11.2948C82.2818 11.4636 82.3772 11.6927 82.3772 11.9315V24.7636C82.3772 25.0024 82.4726 25.2315 82.6425 25.4004C82.8123 25.5692 83.0427 25.6641 83.2829 25.6641H85.0943C85.3345 25.6641 85.5649 25.759 85.7347 25.9279C85.9046 26.0967 86 26.3258 86 26.5646Z" fill="#2679F1"/>
</g>
<defs>
<clipPath id="clip0_443_79">
<rect width="86" height="52" fill="white"/>
</clipPath>
</defs>
</svg>
