<?xml version="1.0" encoding="utf-8"?>
<!-- Generator: Adobe Illustrator 26.2.1, SVG Export Plug-In . SVG Version: 6.00 Build 0)  -->
<svg version="1.1" id="레이어_1" xmlns="http://www.w3.org/2000/svg" xmlns:xlink="http://www.w3.org/1999/xlink" x="0px"
	 y="0px" viewBox="0 0 40 40" style="enable-background:new 0 0 40 40;" xml:space="preserve">
<style type="text/css">
	.st0{fill:#3D50FC;}
	.st1{fill:#FFFFFF;}
</style>
<g>
	<path class="st0" d="M10,0h20c5.5,0,10,4.5,10,10v20c0,5.5-4.5,10-10,10H10C4.5,40,0,35.5,0,30V10C0,4.5,4.5,0,10,0z"/>
</g>
<path class="st1" d="M26,21.5c1-0.9,2-1.7,2.9-2.6c0.5-0.4,0.9-0.8,1.4-1.2c0.2-0.2,0.3-0.4,0.2-0.7c-0.4-0.8-0.2-1.7,0.4-2.3
	c0.6-0.6,1.4-0.8,2.2-0.5c0.8,0.3,1.4,1.1,1.4,1.9c0,1.5-1.4,2.6-2.8,2c-0.3-0.1-0.6-0.1-0.8,0.2c-1.5,1.3-3,2.7-4.5,4
	c-0.1,0.1-0.2,0.3-0.2,0.5c-0.1,1-0.8,1.8-1.7,1.9c-1.2,0.1-2.1-0.3-2.4-1.4C22,23,22,22.7,22,22.5c0-0.4-0.1-0.6-0.4-0.8
	c-1.1-1-2.2-1.9-3.3-2.9c-0.2-0.2-0.4-0.3-0.6-0.5c-0.5,0.6-1,1-1.8,1.1c-0.7,0-1.4-0.3-1.9-0.9c-0.4,0.3-0.8,0.7-1.2,1
	c-1.2,1-2.4,2.1-3.6,3.1c-0.3,0.2-0.3,0.4-0.2,0.7c0.5,1.2-0.5,2.4-1.3,2.7c-1.2,0.3-2.5-0.3-2.7-1.5c-0.2-0.8,0.1-1.6,0.7-2.2
	C6.4,21.7,7.2,21.6,8,22c0.4,0.2,0.6,0.1,1-0.2c1.5-1.3,3-2.6,4.4-3.9c0.2-0.2,0.3-0.4,0.3-0.7c0-1.2,0.8-2.1,2-2.2
	c1.1-0.1,2.1,0.7,2.2,1.8c0,0.4,0.2,0.7,0.5,0.9c1.2,1,2.4,2.1,3.7,3.2c0.2,0.2,0.3,0.2,0.5,0c1.1-0.9,2.3-0.7,3.2,0.3
	C25.9,21.4,25.9,21.4,26,21.5z M32.5,14.8c-0.7,0-1.3,0.6-1.3,1.3c0,0.7,0.6,1.3,1.3,1.3c0.7,0,1.3-0.6,1.3-1.3
	C33.8,15.4,33.2,14.8,32.5,14.8z M15.8,18.5c0.8,0,1.3-0.5,1.3-1.3c0-0.7-0.6-1.3-1.3-1.3c-0.7,0-1.4,0.6-1.4,1.3
	C14.5,17.9,15.1,18.5,15.8,18.5z M24.1,23.9c0.7,0,1.3-0.6,1.4-1.3c0-0.7-0.6-1.3-1.3-1.3c-0.7,0-1.3,0.6-1.3,1.3
	C22.8,23.3,23.3,23.9,24.1,23.9z M8.4,23.9c0-0.7-0.6-1.3-1.3-1.3c-0.7,0-1.3,0.5-1.3,1.2c0,0.8,0.5,1.4,1.3,1.4
	C7.9,25.2,8.4,24.6,8.4,23.9z"/>
<path class="st0" d="M32.5,14.8c0.8,0,1.3,0.5,1.3,1.3c0,0.7-0.6,1.3-1.3,1.3c-0.7,0-1.3-0.6-1.3-1.3C31.1,15.4,31.7,14.8,32.5,14.8
	z"/>
<path class="st0" d="M15.8,18.5c-0.7,0-1.3-0.6-1.3-1.3c0-0.7,0.7-1.3,1.4-1.3c0.7,0,1.3,0.6,1.3,1.3C17.1,18,16.6,18.5,15.8,18.5z"
	/>
<path class="st0" d="M24.1,23.9c-0.8,0-1.3-0.6-1.3-1.3c0-0.7,0.6-1.3,1.3-1.3c0.7,0,1.4,0.6,1.3,1.3C25.4,23.3,24.8,23.9,24.1,23.9
	z"/>
<path class="st0" d="M8.4,23.9c0,0.7-0.5,1.2-1.3,1.2c-0.8,0-1.3-0.6-1.3-1.4c0-0.7,0.6-1.2,1.3-1.2C7.9,22.6,8.4,23.2,8.4,23.9z"/>
</svg>
